<?xml version="1.0" standalone="no"?>
<!DOCTYPE svg PUBLIC "-//W3C//DTD SVG 20010904//EN"
 "http://www.w3.org/TR/2001/REC-SVG-20010904/DTD/svg10.dtd">
<svg version="1.0" xmlns="http://www.w3.org/2000/svg"
 width="700.000000pt" height="700.000000pt" viewBox="0 0 700.000000 700.000000"
 preserveAspectRatio="xMidYMid meet">
<metadata>
Created by potrace 1.14, written by Peter Selinger 2001-2017
</metadata>
<g transform="translate(0.000000,700.000000) scale(0.100000,-0.100000)"
fill="#000000" stroke="none">
<path d="M3227 6544 c-1 -1 -33 -4 -71 -8 -240 -23 -389 -116 -395 -247 -3
-65 19 -219 31 -219 4 0 7 3 7 8 -4 25 5 45 32 77 47 53 93 62 308 61 162 -1
185 -3 195 -18 22 -36 -5 -42 -197 -44 -147 -1 -189 -5 -214 -18 -47 -24 -46
-31 6 -32 78 -1 156 -52 167 -109 6 -34 -5 -69 -119 -380 -69 -187 -148 -409
-176 -497 l-22 -66 -73 3 c-86 3 -110 16 -136 70 -19 38 -20 65 -20 485 -1
473 -6 540 -50 633 -66 140 -208 218 -371 203 -111 -10 -242 -60 -435 -169
-82 -46 -297 -202 -421 -305 -228 -191 -522 -505 -656 -701 -17 -25 -33 -48
-37 -51 -10 -8 -133 -198 -182 -280 -53 -90 -155 -290 -193 -380 -15 -36 -34
-79 -41 -96 -19 -44 -81 -233 -89 -272 -7 -32 -4 -31 127 70 73 56 138 107
144 113 6 5 26 21 44 35 18 14 99 76 179 139 80 62 160 124 176 136 17 13 86
67 155 120 69 53 139 108 155 121 17 13 89 69 160 124 72 55 144 111 160 124
17 13 156 122 310 241 154 120 285 221 290 225 7 6 10 -124 10 -383 -1 -412 5
-494 46 -632 24 -82 84 -204 140 -286 49 -72 182 -207 243 -245 25 -16 46 -33
46 -38 0 -5 -20 -77 -44 -160 -25 -83 -67 -234 -95 -336 -28 -102 -55 -201
-61 -220 -44 -154 -192 -748 -240 -960 -56 -249 -99 -446 -104 -470 -2 -14
-16 -83 -31 -155 -15 -71 -29 -141 -31 -155 -3 -14 -18 -95 -34 -180 -16 -85
-35 -186 -42 -225 l-13 -70 -200 -101 c-225 -114 -255 -137 -255 -192 0 -42
29 -95 59 -112 12 -6 21 -9 21 -8 0 2 -4 17 -9 34 -6 20 -5 35 3 46 9 13 291
138 310 138 4 0 -33 -51 -82 -112 -104 -132 -112 -146 -112 -190 1 -49 59
-108 108 -108 l23 0 -22 29 c-11 16 -19 35 -17 44 1 8 42 57 89 109 48 51 103
111 123 133 l36 40 -48 -141 c-58 -168 -60 -206 -12 -245 33 -28 60 -37 98
-31 29 4 28 16 -3 30 -17 8 -25 20 -25 37 0 41 104 246 143 284 45 43 120 59
263 57 122 -1 139 -11 131 -78 -5 -35 -3 -37 14 -27 10 5 25 20 33 32 55 87
17 170 -99 221 -30 14 -55 29 -54 33 0 4 39 38 87 75 92 70 119 92 217 173 33
28 80 66 105 86 25 20 57 47 71 61 14 13 37 33 52 45 42 33 221 190 322 282
27 25 119 114 203 196 85 83 159 149 165 147 6 -2 68 -59 137 -127 69 -68 137
-134 151 -147 14 -13 68 -62 120 -109 52 -47 114 -103 139 -125 25 -21 47 -41
50 -44 3 -3 32 -28 65 -55 33 -28 73 -62 90 -77 52 -46 269 -223 375 -304
l101 -79 -54 -25 c-75 -35 -112 -65 -127 -100 -22 -53 3 -135 49 -159 17 -10
19 -8 14 27 -8 65 9 77 124 79 151 2 220 -12 266 -56 39 -36 132 -211 143
-269 6 -29 -10 -55 -38 -65 -18 -6 -7 -16 23 -20 52 -9 129 55 129 107 0 9
-16 62 -36 118 -19 57 -42 123 -49 147 l-14 44 37 -41 c20 -22 73 -79 117
-127 101 -109 105 -117 76 -155 l-22 -30 23 0 c52 0 107 59 108 113 0 38 -9
53 -112 184 -48 62 -86 113 -83 113 6 0 235 -95 284 -118 32 -15 33 -17 28
-58 -4 -39 -3 -42 13 -34 29 15 60 74 60 113 0 54 -31 77 -254 191 -215 109
-206 101 -220 191 -3 16 -17 91 -31 165 -14 74 -28 149 -31 165 -2 17 -7 37
-9 45 -2 8 -7 31 -10 50 -6 39 -55 274 -86 420 -71 326 -203 875 -326 1360 -3
14 -8 34 -10 44 -2 11 -11 47 -19 80 -9 34 -17 68 -19 76 -2 8 -29 114 -59
234 -31 121 -55 220 -53 221 143 115 163 134 230 220 61 77 60 75 106 159 32
57 68 160 91 256 22 90 23 116 24 512 0 230 4 418 7 418 4 0 34 -21 67 -47 33
-27 92 -73 132 -103 39 -30 82 -64 95 -74 13 -11 201 -157 418 -325 217 -168
409 -318 428 -333 19 -15 142 -110 274 -213 132 -102 247 -191 255 -198 8 -7
33 -26 55 -42 49 -37 56 -42 129 -101 l58 -47 -7 34 c-14 71 -88 274 -144 399
-80 177 -169 338 -275 500 -74 114 -225 323 -245 340 -4 3 -26 30 -51 60 -148
182 -397 420 -620 592 -214 166 -476 310 -629 349 -233 59 -413 -33 -484 -246
-19 -56 -21 -91 -24 -535 -4 -512 -6 -535 -57 -572 -13 -9 -41 -18 -62 -20
l-38 -3 -29 95 c-16 52 -38 127 -49 165 -11 39 -28 97 -38 130 -169 562 -186
613 -242 723 -111 217 -285 341 -517 368 -52 6 -189 12 -194 8z m60 -95 c48
-46 13 -129 -53 -129 -66 0 -104 66 -68 118 31 45 80 49 121 11z m-27 -1219
c16 0 42 11 58 25 l30 25 4 -23 c3 -13 -2 -45 -9 -71 -11 -37 -21 -50 -48 -63
-66 -31 -125 22 -125 112 l0 47 31 -26 c17 -15 43 -26 59 -26z m479 0 c16 0
40 9 54 20 34 27 37 26 37 -16 0 -84 -59 -139 -120 -114 -45 19 -65 64 -61
138 l1 24 31 -26 c17 -14 43 -26 58 -26z m-1228 -419 c33 -12 67 -4 97 22 21
20 22 20 23 1 0 -10 2 -26 4 -35 1 -9 -5 -35 -15 -56 -30 -67 -107 -78 -144
-21 -21 32 -29 74 -22 104 6 23 9 24 19 11 7 -9 24 -21 38 -26z m515 -4 c22 1
45 10 60 24 l24 22 1 -24 c4 -94 -36 -152 -100 -142 -48 7 -81 57 -81 123 l0
41 30 -23 c19 -14 43 -22 66 -21z m461 0 c24 -4 42 1 68 19 l35 23 0 -47 c0
-64 -40 -115 -90 -115 -51 0 -90 51 -90 117 l0 49 23 -20 c12 -12 37 -24 54
-26z m472 0 c28 -7 91 16 91 33 0 6 5 8 10 5 17 -11 11 -78 -10 -113 -61 -100
-170 -35 -162 97 l2 24 23 -20 c12 -11 33 -23 46 -26z m479 0 c31 -6 92 16 92
33 0 6 5 8 11 4 16 -9 6 -88 -15 -119 -23 -35 -58 -47 -96 -34 -43 15 -76 86
-64 135 6 22 6 23 26 5 11 -11 32 -21 46 -24z m-1569 -465 c-9 -40 -43 -79
-73 -84 -53 -9 -106 50 -106 120 0 39 8 44 31 21 28 -28 93 -26 122 4 l22 22
5 -25 c4 -14 3 -40 -1 -58z m331 58 c13 -13 33 -20 60 -20 27 0 47 7 60 20 11
11 22 20 25 20 11 0 4 -83 -10 -110 -50 -96 -165 -48 -165 70 0 46 2 48 30 20z
m483 -4 c3 -7 25 -13 49 -14 32 -2 49 3 65 18 30 28 33 26 33 -20 0 -102 -90
-159 -150 -95 -29 31 -44 140 -17 129 8 -3 18 -11 20 -18z m529 -16 c20 0 46
8 60 20 29 23 38 18 38 -22 0 -103 -95 -157 -154 -87 -14 17 -27 41 -27 55 -4
74 -2 80 24 56 15 -14 36 -22 59 -22z m-237 -430 c18 0 44 9 58 20 34 27 37
26 37 -14 0 -100 -77 -157 -142 -106 -27 21 -45 77 -40 121 l3 27 26 -24 c16
-15 38 -24 58 -24z m-1008 20 c38 -29 102 -22 125 14 24 37 27 -58 3 -104 -49
-95 -165 -47 -165 69 0 47 3 48 37 21z m480 0 c14 -11 38 -20 53 -20 15 0 39
9 53 20 14 11 28 20 31 20 11 0 6 -81 -6 -103 -53 -102 -168 -59 -168 63 0 46
3 47 37 20z m-678 -446 c31 -5 58 5 85 32 15 14 16 13 17 -8 3 -49 -1 -71 -21
-103 -53 -86 -160 -26 -160 89 l0 39 24 -22 c13 -12 38 -25 55 -27z m482 1
c30 -5 41 -2 67 20 l32 27 0 -47 c0 -79 -53 -135 -114 -119 -35 9 -66 64 -66
119 l0 48 23 -20 c12 -12 38 -24 58 -28z m498 0 c20 3 43 14 52 25 21 24 29
16 29 -28 0 -48 -26 -98 -58 -111 -68 -27 -122 23 -122 114 l0 47 31 -27 c26
-21 38 -25 68 -20z m429 6 c28 -14 85 -5 103 18 20 24 29 18 29 -21 0 -42 -25
-94 -53 -113 -28 -18 -69 -14 -92 9 -19 18 -42 75 -40 96 1 8 3 23 3 33 2 17
3 17 18 3 8 -9 23 -20 32 -25z m-1660 -433 c9 0 24 -2 32 -3 8 -1 30 9 48 22
34 25 36 23 33 -32 -2 -50 -21 -83 -56 -99 -40 -19 -76 -9 -100 27 -18 29 -30
89 -21 112 5 13 8 13 26 -5 11 -11 28 -21 38 -22z m432 31 c0 -5 16 -17 35
-25 30 -12 40 -12 69 0 18 8 37 20 42 27 6 10 10 7 14 -11 10 -42 -1 -80 -34
-114 -46 -50 -98 -40 -132 25 -16 32 -19 109 -4 109 6 0 10 -5 10 -11z m548
-32 c16 0 44 10 62 23 l33 23 -5 -57 c-6 -69 -38 -109 -88 -109 -50 0 -82 40
-88 109 l-5 57 31 -23 c17 -13 44 -23 60 -23z m467 0 c32 -5 85 17 85 34 0 6
5 7 10 4 15 -9 12 -72 -4 -104 -28 -53 -71 -68 -123 -40 -29 15 -48 73 -44
133 1 19 2 19 24 -2 12 -11 36 -23 52 -25z m480 0 c30 -4 85 19 85 36 0 4 5 5
10 2 28 -17 -2 -124 -42 -146 -29 -17 -36 -17 -72 -6 -19 7 -34 23 -46 48 -15
34 -17 52 -11 103 1 5 11 0 24 -12 12 -11 36 -23 52 -25z m-1576 -465 c-20
-93 -122 -112 -164 -32 -14 27 -21 110 -10 110 3 0 15 -9 27 -20 31 -28 92
-27 121 3 l22 22 5 -25 c4 -14 3 -40 -1 -58z m333 58 c29 -27 87 -26 117 1 24
23 28 22 31 -1 7 -47 -2 -80 -30 -110 -62 -66 -150 -15 -150 86 0 24 2 44 5
44 3 0 15 -9 27 -20z m478 0 c13 -13 33 -20 58 -20 24 0 46 7 60 20 29 27 32
26 32 -15 0 -46 -23 -101 -48 -114 -34 -18 -77 -13 -100 12 -22 23 -41 89 -34
120 4 22 8 21 32 -3z m481 -1 c17 -17 30 -20 67 -16 27 3 49 11 54 21 15 27
28 18 28 -18 0 -72 -41 -126 -95 -126 -54 0 -98 69 -87 138 4 27 7 27 33 1z
m-1533 -493 c-12 -37 -55 -76 -84 -76 -49 0 -97 69 -92 133 3 32 3 32 35 7 36
-28 85 -26 114 5 l24 24 7 -31 c3 -17 1 -45 -4 -62z m484 47 c1 -123 -112
-166 -169 -65 -13 22 -18 102 -7 102 3 0 17 -9 31 -20 39 -31 103 -22 126 17
13 21 18 10 19 -34z m825 9 c34 -19 69 -14 100 12 l29 25 2 -40 c7 -109 -100
-171 -156 -91 -20 28 -25 52 -23 107 1 26 3 28 14 14 7 -9 22 -21 34 -27z
m473 3 c42 -22 78 -18 105 9 l25 25 6 -25 c16 -62 -38 -144 -93 -144 -33 0
-79 50 -86 94 -6 35 3 91 11 68 2 -7 17 -19 32 -27z m-2088 -446 c-2 -115
-119 -156 -169 -58 -12 22 -18 99 -9 99 3 0 20 -9 39 -20 41 -24 81 -21 111 9
25 26 29 22 28 -30z m389 8 c28 1 48 8 66 24 l25 24 -4 -59 c-4 -51 -9 -63
-37 -88 -40 -35 -62 -35 -102 0 -28 25 -33 37 -37 88 l-4 59 26 -24 c20 -19
37 -25 67 -24z m1564 -3 c22 -4 40 1 69 21 l39 26 -5 -57 c-4 -49 -10 -62 -37
-86 -41 -37 -66 -35 -107 6 -30 30 -34 40 -34 87 l0 52 23 -21 c13 -12 36 -24
52 -28z m477 1 c20 -5 38 -1 63 14 20 12 38 21 41 21 13 0 1 -80 -16 -108 -27
-44 -60 -58 -99 -42 -49 20 -66 61 -62 144 1 19 2 19 24 -2 12 -11 34 -24 49
-27z"/>
<path d="M1800 5341 c-47 -37 -245 -195 -440 -350 -195 -155 -362 -287 -370
-294 -8 -7 -103 -82 -210 -167 -107 -85 -204 -162 -215 -172 -11 -9 -99 -79
-195 -155 -96 -76 -219 -174 -273 -217 l-99 -78 60 -43 c111 -81 209 -117 326
-120 173 -5 286 44 498 217 56 46 114 92 129 103 31 23 571 457 579 465 3 3
25 21 50 40 46 35 67 53 100 80 9 8 48 39 86 69 l69 54 -3 301 c-1 166 -4 309
-5 318 -1 13 -23 0 -87 -51z"/>
<path d="M5109 5149 c0 -145 -2 -287 -4 -316 -4 -56 -2 -59 115 -150 19 -15
99 -79 124 -100 296 -242 940 -750 975 -767 97 -50 183 -70 286 -70 131 1 230
38 353 130 l43 33 -253 201 c-139 111 -262 209 -273 218 -11 9 -83 67 -160
128 -104 82 -775 614 -1192 947 -10 7 -13 -45 -14 -254z"/>
<path d="M5055 4587 c-34 -101 -102 -236 -155 -307 -22 -30 -40 -54 -40 -55 0
-1 35 -32 78 -68 42 -36 91 -78 107 -92 41 -36 95 -82 355 -304 212 -182 292
-250 350 -301 14 -11 34 -29 45 -38 66 -55 151 -128 155 -133 30 -36 335 -276
378 -298 134 -68 292 -84 419 -43 65 21 169 76 216 114 l29 24 -157 129 c-87
72 -162 135 -169 140 -6 6 -101 84 -211 175 -276 226 -495 408 -525 434 -14
11 -88 73 -165 136 -77 63 -142 117 -145 120 -3 3 -21 18 -40 34 -19 15 -55
45 -80 66 -25 21 -90 75 -145 120 -152 126 -196 162 -236 197 l-36 33 -28 -83z"/>
<path d="M1763 4538 c-81 -68 -245 -203 -363 -302 -118 -98 -233 -193 -255
-211 -22 -18 -123 -102 -225 -186 -102 -84 -266 -220 -365 -302 -99 -82 -198
-163 -220 -182 -22 -18 -104 -86 -183 -150 l-143 -118 33 -28 c46 -40 173
-103 238 -119 75 -18 192 -17 268 3 87 23 157 59 233 120 63 51 389 326 399
337 3 3 48 41 100 85 52 44 102 87 111 95 17 16 39 35 139 120 36 30 67 57 70
60 3 3 125 108 272 234 l266 228 -48 71 c-75 111 -160 299 -160 354 0 7 -4 13
-10 13 -5 0 -76 -55 -157 -122z"/>
<path d="M2095 4078 c-49 -44 -119 -106 -154 -137 -35 -31 -71 -63 -80 -72 -9
-8 -79 -71 -156 -139 -77 -69 -142 -127 -145 -130 -3 -3 -41 -37 -84 -75 -44
-39 -87 -77 -96 -85 -9 -8 -49 -44 -90 -80 -40 -36 -78 -70 -84 -75 -6 -6 -94
-84 -196 -175 -102 -90 -192 -171 -201 -179 -9 -9 -47 -43 -84 -76 -38 -33
-73 -64 -79 -70 -6 -5 -49 -44 -96 -85 -47 -41 -87 -77 -90 -80 -3 -3 -65 -59
-138 -124 l-133 -119 28 -23 c44 -36 152 -90 217 -109 89 -26 228 -17 321 20
76 30 157 79 196 116 14 13 62 58 108 99 47 41 89 80 95 86 6 5 65 59 131 119
66 59 142 129 169 154 27 25 56 53 65 61 70 62 125 111 177 159 164 151 241
221 264 241 34 29 208 189 236 217 12 12 25 30 27 40 138 487 132 464 112 479
-11 8 -46 38 -79 67 -32 28 -62 53 -65 54 -3 1 -46 -34 -96 -79z"/>
<path d="M4736 4097 l-69 -63 26 -105 c14 -57 43 -172 64 -254 41 -162 36
-153 153 -255 9 -8 63 -58 120 -110 57 -52 112 -103 123 -113 25 -21 165 -149
205 -186 32 -30 207 -189 232 -211 9 -8 62 -56 116 -106 368 -338 389 -356
479 -405 120 -65 289 -78 418 -33 45 16 148 73 185 102 l23 18 -88 80 c-48 43
-90 81 -93 84 -3 3 -43 39 -90 80 -47 41 -87 77 -90 80 -3 3 -43 39 -90 80
-47 41 -90 80 -96 85 -6 6 -26 24 -45 40 -19 17 -160 143 -314 280 -249 222
-331 295 -369 330 -6 6 -114 102 -241 215 -126 112 -232 207 -235 210 -3 3
-43 39 -90 80 -47 41 -101 90 -120 107 -19 18 -37 33 -40 33 -3 0 -36 -29 -74
-63z"/>
<path d="M2064 3252 c-44 -42 -126 -120 -183 -172 -136 -126 -267 -247 -441
-410 -20 -19 -66 -62 -101 -94 -35 -33 -116 -107 -179 -167 -63 -59 -131 -121
-150 -139 -19 -18 -84 -78 -145 -135 -60 -56 -126 -117 -145 -135 -296 -273
-280 -247 -174 -299 181 -90 368 -90 544 -1 81 41 101 58 455 390 44 41 105
98 135 126 30 29 80 75 110 104 30 28 77 72 103 97 l49 45 104 418 c57 230
106 425 110 434 12 31 -11 15 -92 -62z"/>
<path d="M4846 3313 c2 -10 42 -171 88 -358 83 -334 103 -415 112 -465 3 -13
18 -36 34 -50 30 -27 73 -67 293 -274 75 -71 147 -137 159 -147 11 -11 75 -70
141 -131 177 -167 230 -201 375 -239 133 -34 291 -11 424 61 32 17 60 35 63
39 5 8 -6 19 -244 241 -74 69 -149 139 -166 155 -67 62 -259 241 -284 264 -14
13 -77 71 -140 130 -62 58 -123 114 -135 124 -11 10 -55 51 -96 90 -42 40
-129 122 -195 182 -65 61 -133 124 -150 140 -18 17 -85 80 -150 140 -65 61
-121 111 -125 113 -5 2 -7 -5 -4 -15z"/>
<path d="M1805 2198 c-49 -50 -285 -282 -523 -516 l-433 -426 23 -18 c38 -30
159 -85 217 -98 32 -8 86 -11 135 -7 145 9 257 67 409 212 95 89 95 91 107
155 24 134 70 357 135 659 14 68 25 124 23 126 -2 1 -43 -38 -93 -87z"/>
<path d="M5100 2263 c5 -16 11 -41 13 -58 3 -16 12 -60 21 -96 8 -37 17 -78
20 -90 2 -13 12 -60 21 -104 9 -44 19 -89 21 -100 2 -11 19 -101 39 -199 l35
-179 43 -40 c23 -22 68 -64 99 -93 67 -64 162 -123 238 -148 73 -24 194 -32
262 -16 57 13 178 68 216 98 l23 18 -451 445 c-248 244 -485 477 -525 517 -41
39 -76 72 -79 72 -3 0 -1 -12 4 -27z"/>
<path d="M3547 1932 c-2 -4 -3 -277 -2 -607 1 -644 0 -622 52 -681 89 -102
275 -57 310 77 5 19 9 224 9 457 -1 384 -3 425 -18 436 -18 13 -210 192 -295
275 -29 28 -54 47 -56 43z"/>
<path d="M3394 1887 c-50 -52 -253 -240 -285 -266 l-24 -19 0 -439 0 -438 27
-45 c60 -103 196 -123 281 -42 63 59 60 29 61 690 1 395 -2 602 -9 601 -5 0
-28 -19 -51 -42z"/>
<path d="M2900 1439 c-52 -45 -109 -93 -125 -108 -25 -21 -129 -107 -144 -118
-3 -2 -4 -115 -4 -251 1 -233 2 -251 22 -290 31 -61 88 -95 159 -96 70 -1 114
22 157 83 l30 42 0 410 c0 225 0 409 0 409 0 0 -43 -37 -95 -81z"/>
<path d="M4005 1111 c1 -439 1 -436 57 -488 88 -82 235 -57 289 49 20 39 21
57 21 267 0 294 3 272 -36 301 -40 31 -124 100 -146 120 -9 8 -54 47 -101 86
l-85 72 1 -407z"/>
</g>
</svg>
